<svg preserveAspectRatio="none" width="100%" height="100%" overflow="visible" style="display: block;" viewBox="0 0 26 26" fill="none" xmlns="http://www.w3.org/2000/svg">
<g id="basil:phone-solid">
<path id="Vector" d="M5.41569 10.6815C7.49588 15.2105 11.1914 18.8001 15.7789 20.7478L16.5155 21.0761C17.3313 21.4394 18.2491 21.503 19.1072 21.2559C19.9654 21.0088 20.7087 20.4667 21.2064 19.7252L22.1694 18.2908C22.3201 18.0659 22.3812 17.7927 22.3405 17.525C22.2998 17.2573 22.1603 17.0146 21.9495 16.8446L18.6865 14.2121C18.5729 14.1205 18.4419 14.0528 18.3014 14.013C18.161 13.9733 18.0139 13.9624 17.8692 13.9809C17.7244 13.9994 17.5848 14.047 17.4589 14.1208C17.3329 14.1946 17.2232 14.2931 17.1363 14.4103L16.1266 15.7721C13.5348 14.4921 11.437 12.3938 10.1574 9.80185L11.5181 8.79218C11.6354 8.70525 11.7339 8.59553 11.8077 8.46959C11.8815 8.34365 11.929 8.20409 11.9476 8.0593C11.9661 7.91451 11.9551 7.76747 11.9154 7.62701C11.8757 7.48655 11.808 7.35557 11.7164 7.24193L9.08386 3.97893C8.91388 3.76817 8.67114 3.6287 8.40346 3.588C8.13577 3.54729 7.86255 3.60831 7.63761 3.75901L6.19352 4.72751C5.44754 5.22777 4.90337 5.97661 4.65796 6.84063C4.41254 7.70464 4.48181 8.62772 4.85344 9.44543L5.41569 10.6815Z" fill="var(--fill-0, #57423B)"/>
</g>
</svg>
