<svg preserveAspectRatio="none" width="100%" height="100%" overflow="visible" style="display: block;" viewBox="0 0 19 19" fill="none" xmlns="http://www.w3.org/2000/svg">
<g id="Social Media Icon Square/Instagram">
<path id="Instagram" d="M9.84961 0.39502C13.4447 0.39502 15.2424 0.394824 16.5371 1.25146C17.1153 1.63402 17.6106 2.12936 17.9932 2.70752C18.8498 4.00225 18.8496 5.79995 18.8496 9.39502C18.8496 12.9901 18.8498 14.7878 17.9932 16.0825C17.6106 16.6607 17.1153 17.156 16.5371 17.5386C15.2424 18.3952 13.4447 18.395 9.84961 18.395C6.25454 18.395 4.45684 18.3952 3.16211 17.5386C2.58395 17.156 2.08861 16.6607 1.70605 16.0825C0.849414 14.7878 0.849609 12.9901 0.849609 9.39502C0.849609 5.79995 0.849414 4.00225 1.70605 2.70752C2.08861 2.12936 2.58395 1.63402 3.16211 1.25146C4.45684 0.394824 6.25454 0.39502 9.84961 0.39502ZM9.84863 4.73584C7.27542 4.73595 5.18948 6.82179 5.18945 9.39502C5.18945 11.9683 7.2754 14.0541 9.84863 14.0542C12.422 14.0542 14.5078 11.9683 14.5078 9.39502C14.5078 6.82172 12.4219 4.73584 9.84863 4.73584ZM9.84863 6.31201C11.5513 6.31201 12.9316 7.69234 12.9316 9.39502C12.9316 11.0977 11.5513 12.478 9.84863 12.478C8.14603 12.4779 6.76563 11.0976 6.76563 9.39502C6.76565 7.69241 8.14604 6.31212 9.84863 6.31201ZM14.6924 3.40674C14.0878 3.40674 13.5977 3.89686 13.5977 4.50146C13.5977 5.10612 14.0877 5.59619 14.6924 5.59619C15.297 5.59613 15.7871 5.10608 15.7871 4.50146C15.7871 3.89689 15.297 3.4068 14.6924 3.40674Z" fill="var(--fill-0, #57423B)"/>
</g>
</svg>
