<svg preserveAspectRatio="none" width="100%" height="100%" overflow="visible" style="display: block;" viewBox="0 0 19 19" fill="none" xmlns="http://www.w3.org/2000/svg">
<g id="ri:whatsapp-fill">
<path id="Vector" d="M9.50079 1.58333C13.8732 1.58333 17.4175 5.12763 17.4175 9.5C17.4175 13.8724 13.8732 17.4167 9.50079 17.4167C8.10172 17.4191 6.72725 17.0488 5.51871 16.344L1.58729 17.4167L2.65763 13.4837C1.95222 12.2747 1.58167 10.8997 1.58412 9.5C1.58412 5.12763 5.12842 1.58333 9.50079 1.58333ZM6.80279 5.77917L6.64446 5.7855C6.54209 5.79255 6.44207 5.81944 6.34996 5.86467C6.26412 5.91336 6.18574 5.97415 6.11721 6.04517C6.02221 6.13463 5.96838 6.21221 5.91058 6.28742C5.61776 6.66813 5.4601 7.13554 5.4625 7.61583C5.46408 8.00375 5.56542 8.38138 5.72375 8.73446C6.04754 9.44854 6.58033 10.2046 7.28333 10.9052C7.45275 11.0738 7.619 11.2433 7.79792 11.4008C8.67147 12.1698 9.71239 12.7244 10.8379 13.0205L11.2876 13.0894C11.434 13.0973 11.5805 13.0863 11.7278 13.0791C11.9583 13.067 12.1833 13.0046 12.3872 12.8963C12.4908 12.8427 12.592 12.7846 12.6904 12.7221C12.6904 12.7221 12.7239 12.6994 12.7894 12.6508C12.8963 12.5717 12.962 12.5155 13.0506 12.4228C13.1171 12.3542 13.1725 12.2745 13.2169 12.1838C13.2786 12.0547 13.3404 11.8085 13.3657 11.6035C13.3847 11.4467 13.3792 11.3612 13.3768 11.3082C13.3736 11.2235 13.3032 11.1356 13.2264 11.0984L12.7656 10.8918C12.7656 10.8918 12.0769 10.5917 11.6557 10.4001C11.6116 10.3809 11.5644 10.3699 11.5164 10.3677C11.4622 10.362 11.4074 10.368 11.3558 10.3854C11.3042 10.4027 11.2569 10.431 11.2171 10.4682C11.2132 10.4666 11.1601 10.5118 10.5878 11.2053C10.5549 11.2494 10.5096 11.2828 10.4578 11.3011C10.4059 11.3194 10.3497 11.3219 10.2964 11.3082C10.2448 11.2944 10.1943 11.277 10.1452 11.2559C10.047 11.2148 10.013 11.1989 9.94571 11.1704C9.49119 10.9724 9.07047 10.7045 8.69883 10.3764C8.59908 10.2893 8.50646 10.1943 8.41146 10.1025C8.10003 9.80416 7.82859 9.46674 7.60396 9.09863L7.55725 9.02342C7.52421 8.97259 7.49711 8.91814 7.4765 8.86113C7.44642 8.74475 7.52479 8.65133 7.52479 8.65133C7.52479 8.65133 7.71717 8.44075 7.80663 8.32675C7.89371 8.21592 7.96733 8.10825 8.01483 8.03146C8.10825 7.88104 8.13754 7.72667 8.08846 7.60713C7.86679 7.06563 7.63774 6.52703 7.40129 5.99133C7.35458 5.88525 7.21604 5.80925 7.09017 5.79421C7.04742 5.78893 7.00467 5.78471 6.96192 5.78154C6.85562 5.77544 6.74903 5.7765 6.64287 5.78471L6.80279 5.77917Z" fill="var(--fill-0, #57423B)"/>
</g>
</svg>
