<svg width="16" height="16" viewBox="0 0 16 16.0044" fill="none" xmlns="http://www.w3.org/2000/svg" aria-hidden="true">
  <path d="M5 1.77996C4.73478 1.77996 4.48043 1.87361 4.29289 2.04031C4.10536 2.207 4 2.4331 4 2.66884C4 2.90459 4.10536 3.13068 4.29289 3.29738C4.48043 3.46408 4.73478 3.55773 5 3.55773C5.26522 3.55773 5.51957 3.46408 5.70711 3.29738C5.89464 3.13068 6 2.90459 6 2.66884C6 2.4331 5.89464 2.207 5.70711 2.04031C5.51957 1.87361 5.26522 1.77996 5 1.77996ZM2.17 1.77996C2.3766 1.25948 2.75974 0.808786 3.2666 0.489991C3.77346 0.171196 4.37909 0 5 0C5.62091 0 6.22654 0.171196 6.7334 0.489991C7.24026 0.808786 7.6234 1.25948 7.83 1.77996H15C15.2652 1.77996 15.5196 1.87361 15.7071 2.04031C15.8946 2.207 16 2.4331 16 2.66884C16 2.90459 15.8946 3.13068 15.7071 3.29738C15.5196 3.46408 15.2652 3.55773 15 3.55773H7.83C7.6234 4.07821 7.24026 4.5289 6.7334 4.8477C6.22654 5.16649 5.62091 5.33769 5 5.33769C4.37909 5.33769 3.77346 5.16649 3.2666 4.8477C2.75974 4.5289 2.3766 4.07821 2.17 3.55773H1C0.734784 3.55773 0.48043 3.46408 0.292893 3.29738C0.105357 3.13068 0 2.90459 0 2.66884C0 2.4331 0.105357 2.207 0.292893 2.04031C0.48043 1.87361 0.734784 1.77996 1 1.77996H2.17ZM11 7.11329C10.7348 7.11329 10.4804 7.20694 10.2929 7.37364C10.1054 7.54034 10 7.76643 10 8.00218C10 8.23793 10.1054 8.46402 10.2929 8.63072C10.4804 8.79742 10.7348 8.89107 11 8.89107C11.2652 8.89107 11.5196 8.79742 11.7071 8.63072C11.8946 8.46402 12 8.23793 12 8.00218C12 7.76643 11.8946 7.54034 11.7071 7.37364C11.5196 7.20694 11.2652 7.11329 11 7.11329ZM8.17 7.11329C8.3766 6.59282 8.75974 6.14212 9.2666 5.82332C9.77346 5.50453 10.3791 5.33333 11 5.33333C11.6209 5.33333 12.2265 5.50453 12.7334 5.82332C13.2403 6.14212 13.6234 6.59282 13.83 7.11329H15C15.2652 7.11329 15.5196 7.20694 15.7071 7.37364C15.8946 7.54034 16 7.76643 16 8.00218C16 8.23793 15.8946 8.46402 15.7071 8.63072C15.5196 8.79742 15.2652 8.89107 15 8.89107H13.83C13.6234 9.41154 13.2403 9.86224 12.7334 10.181C12.2265 10.4998 11.6209 10.671 11 10.671C10.3791 10.671 9.77346 10.4998 9.2666 10.181C8.75974 9.86224 8.3766 9.41154 8.17 8.89107H1C0.734784 8.89107 0.48043 8.79742 0.292893 8.63072C0.105357 8.46402 0 8.23793 0 8.00218C0 7.76643 0.105357 7.54034 0.292893 7.37364C0.48043 7.20694 0.734784 7.11329 1 7.11329H8.17ZM5 12.4466C4.73478 12.4466 4.48043 12.5403 4.29289 12.707C4.10536 12.8737 4 13.0998 4 13.3355C4 13.5713 4.10536 13.7974 4.29289 13.9641C4.48043 14.1308 4.73478 14.2244 5 14.2244C5.26522 14.2244 5.51957 14.1308 5.70711 13.9641C5.89464 13.7974 6 13.5713 6 13.3355C6 13.0998 5.89464 12.8737 5.70711 12.707C5.51957 12.5403 5.26522 12.4466 5 12.4466ZM2.17 12.4466C2.3766 11.9261 2.75974 11.4755 3.2666 11.1567C3.77346 10.8379 4.37909 10.6667 5 10.6667C5.62091 10.6667 6.22654 10.8379 6.7334 11.1567C7.24026 11.4755 7.6234 11.9261 7.83 12.4466H15C15.2652 12.4466 15.5196 12.5403 15.7071 12.707C15.8946 12.8737 16 13.0998 16 13.3355C16 13.5713 15.8946 13.7974 15.7071 13.9641C15.5196 14.1308 15.2652 14.2244 15 14.2244H7.83C7.6234 14.7449 7.24026 15.1956 6.7334 15.5144C6.22654 15.8332 5.62091 16.0044 5 16.0044C4.37909 16.0044 3.77346 15.8332 3.2666 15.5144C2.75974 15.1956 2.3766 14.7449 2.17 14.2244H1C0.734784 14.2244 0.48043 14.1308 0.292893 13.9641C0.105357 13.7974 0 13.5713 0 13.3355C0 13.0998 0.105357 12.8737 0.292893 12.707C0.48043 12.5403 0.734784 12.4466 1 12.4466H2.17Z" fill="white"/>
</svg>
