<svg preserveAspectRatio="none" width="100%" height="100%" overflow="visible" style="display: block;" viewBox="0 0 32 32" fill="none" xmlns="http://www.w3.org/2000/svg">
<g id="bxs:cart">
<path id="Vector" d="M29.0954 9.90802C28.9727 9.73078 28.8089 9.58591 28.6181 9.48583C28.4272 9.38574 28.2149 9.33342 27.9993 9.33335H9.77668L8.23802 5.64002C8.03686 5.15323 7.69538 4.73732 7.25705 4.44526C6.81873 4.1532 6.30339 3.99821 5.77668 4.00002H2.66602V6.66668H5.77668L12.102 21.8467C12.2033 22.0896 12.3743 22.297 12.5932 22.4429C12.8122 22.5889 13.0695 22.6667 13.3327 22.6667H23.9993C24.5553 22.6667 25.0527 22.3213 25.2487 21.8027L29.2487 11.136C29.3243 10.9342 29.3498 10.717 29.3231 10.5031C29.2964 10.2893 29.2183 10.0851 29.0954 9.90802Z" fill="var(--fill-0, white)"/>
<path id="Vector_2" d="M14 28C15.1046 28 16 27.1046 16 26C16 24.8954 15.1046 24 14 24C12.8954 24 12 24.8954 12 26C12 27.1046 12.8954 28 14 28Z" fill="var(--fill-0, white)"/>
<path id="Vector_3" d="M23.334 28C24.4386 28 25.334 27.1046 25.334 26C25.334 24.8954 24.4386 24 23.334 24C22.2294 24 21.334 24.8954 21.334 26C21.334 27.1046 22.2294 28 23.334 28Z" fill="var(--fill-0, white)"/>
</g>
</svg>
