<svg preserveAspectRatio="none" width="100%" height="100%" overflow="visible" style="display: block;" viewBox="0 0 34 34" fill="none" xmlns="http://www.w3.org/2000/svg">
<g id="mdi:heart-outline">
<path id="Vector" d="M17.1423 26.2792L17.0007 26.4208L16.8448 26.2792C10.1157 20.1733 5.66732 16.1358 5.66732 12.0417C5.66732 9.20833 7.79232 7.08333 10.6257 7.08333C12.8073 7.08333 14.9323 8.5 15.6832 10.4267H18.3182C19.069 8.5 21.194 7.08333 23.3757 7.08333C26.209 7.08333 28.334 9.20833 28.334 12.0417C28.334 16.1358 23.8857 20.1733 17.1423 26.2792ZM23.3757 4.25C20.9107 4.25 18.5448 5.3975 17.0007 7.19667C15.4565 5.3975 13.0907 4.25 10.6257 4.25C6.26232 4.25 2.83398 7.66417 2.83398 12.0417C2.83398 17.3825 7.65065 21.76 14.9465 28.3758L17.0007 30.2458L19.0548 28.3758C26.3507 21.76 31.1673 17.3825 31.1673 12.0417C31.1673 7.66417 27.739 4.25 23.3757 4.25Z" fill="var(--fill-0, black)" fill-opacity="0.35"/>
</g>
</svg>
