<svg preserveAspectRatio="none" width="100%" height="100%" overflow="visible" style="display: block;" viewBox="0 0 30 30" fill="none" xmlns="http://www.w3.org/2000/svg">
<g id="Frame">
<path id="Vector" d="M24.5 25.75L16.625 17.875C16 18.375 15.2813 18.7708 14.4688 19.0625C13.6563 19.3542 12.7917 19.5 11.875 19.5C9.60417 19.5 7.6825 18.7133 6.11 17.14C4.5375 15.5667 3.75083 13.645 3.75 11.375C3.74917 9.105 4.53583 7.18333 6.11 5.61C7.68417 4.03667 9.60583 3.25 11.875 3.25C14.1442 3.25 16.0663 4.03667 17.6413 5.61C19.2163 7.18333 20.0025 9.105 20 11.375C20 12.2917 19.8542 13.1562 19.5625 13.9687C19.2708 14.7812 18.875 15.5 18.375 16.125L26.25 24L24.5 25.75ZM11.875 17C13.4375 17 14.7658 16.4533 15.86 15.36C16.9542 14.2667 17.5008 12.9383 17.5 11.375C17.4992 9.81167 16.9525 8.48375 15.86 7.39125C14.7675 6.29875 13.4392 5.75167 11.875 5.75C10.3108 5.74833 8.98292 6.29542 7.89125 7.39125C6.79958 8.48708 6.2525 9.815 6.25 11.375C6.2475 12.935 6.79458 14.2633 7.89125 15.36C8.98792 16.4567 10.3158 17.0033 11.875 17Z" fill="var(--fill-0, white)"/>
</g>
</svg>
