<svg preserveAspectRatio="none" width="100%" height="100%" overflow="visible" style="display: block;" viewBox="0 0 30 29" fill="none" xmlns="http://www.w3.org/2000/svg">
<g id="Frame">
<path id="Vector" d="M6.985 25.874C6.495 25.4004 6.25 24.8313 6.25 24.1667C6.25 23.5021 6.495 22.9334 6.985 22.4605C7.475 21.9876 8.06333 21.7508 8.75 21.75C9.43667 21.7492 10.0254 21.986 10.5163 22.4605C11.0071 22.935 11.2517 23.5037 11.25 24.1667C11.2483 24.8296 11.0038 25.3988 10.5163 25.874C10.0288 26.3493 9.44 26.5858 8.75 26.5833C8.06 26.5809 7.47167 26.3445 6.985 25.874ZM19.485 25.874C18.995 25.4004 18.75 24.8313 18.75 24.1667C18.75 23.5021 18.995 22.9334 19.485 22.4605C19.975 21.9876 20.5633 21.7508 21.25 21.75C21.9367 21.7492 22.5254 21.986 23.0163 22.4605C23.5071 22.935 23.7517 23.5037 23.75 24.1667C23.7483 24.8296 23.5038 25.3988 23.0163 25.874C22.5288 26.3493 21.94 26.5858 21.25 26.5833C20.56 26.5809 19.9717 26.3445 19.485 25.874ZM6.5 4.83333H24.9375C25.4167 4.83333 25.7813 5.03996 26.0313 5.45321C26.2813 5.86646 26.2917 6.28414 26.0625 6.70625L21.625 14.4396C21.3958 14.8424 21.0887 15.1545 20.7037 15.376C20.3187 15.5976 19.8967 15.7083 19.4375 15.7083H10.125L8.75 18.125H23.75V20.5417H8.75C7.8125 20.5417 7.10417 20.1441 6.625 19.349C6.14583 18.554 6.125 17.7633 6.5625 16.9771L8.25 14.0167L3.75 4.83333H1.25V2.41667H5.3125L6.5 4.83333Z" fill="var(--fill-0, white)"/>
</g>
</svg>
