<svg preserveAspectRatio="none" width="100%" height="100%" overflow="visible" style="display: block;" viewBox="0 0 20.75 18.6667" fill="none" xmlns="http://www.w3.org/2000/svg">
<path id="Vector" d="M9.33333 5.16667L5.16667 9.33333L9.33333 13.5M5.16667 9.33333H19.75M14.5417 13.5V14.5417C14.5417 15.3705 14.2124 16.1653 13.6264 16.7514C13.0403 17.3374 12.2455 17.6667 11.4167 17.6667H4.125C3.2962 17.6667 2.50134 17.3374 1.91529 16.7514C1.32924 16.1653 1 15.3705 1 14.5417V4.125C1 3.2962 1.32924 2.50134 1.91529 1.91529C2.50134 1.32924 3.2962 1 4.125 1H11.4167C12.2455 1 13.0403 1.32924 13.6264 1.91529C14.2124 2.50134 14.5417 3.2962 14.5417 4.125V5.16667" stroke="var(--stroke-0, #4B5563)" stroke-width="2" stroke-linecap="round" stroke-linejoin="round"/>
</svg>
