<svg preserveAspectRatio="none" width="100%" height="100%" overflow="visible" style="display: block;" viewBox="0 0 16.4913 15.9925" fill="none" xmlns="http://www.w3.org/2000/svg">
<g id="Group">
<path id="Vector" d="M9.00197 15.2139C8.97591 15.374 8.90135 15.5235 8.78517 15.6396C8.63918 15.7856 8.44084 15.8672 8.23439 15.8672C8.02798 15.8671 7.82956 15.7856 7.68361 15.6396C7.56749 15.5235 7.49285 15.3739 7.46681 15.2139H9.00197ZM7.50685 9.2793C7.69969 9.47214 7.96168 9.58101 8.23439 9.58105C8.50716 9.58105 8.76905 9.47218 8.96193 9.2793C8.97993 9.26128 8.9962 9.24183 9.01271 9.22266V14.9639H7.45607V9.22168C7.47272 9.24105 7.48868 9.2611 7.50685 9.2793ZM9.00001 8.68848C8.97234 8.84424 8.8985 8.98909 8.78517 9.10254C8.63917 9.24853 8.44086 9.33105 8.23439 9.33105C8.02798 9.33101 7.82956 9.24849 7.68361 9.10254C7.57036 8.9891 7.49641 8.84419 7.46876 8.68848H9.00001ZM8.23439 7.78516C8.44077 7.78516 8.63919 7.86681 8.78517 8.0127C8.89868 8.1262 8.97233 8.27182 9.00001 8.42773H7.46876C7.49644 8.27179 7.57009 8.12622 7.68361 8.0127C7.82956 7.86674 8.02798 7.7852 8.23439 7.78516ZM9.01271 2.63184V7.8916C8.9964 7.87271 8.97969 7.8537 8.96193 7.83594C8.76906 7.64317 8.50708 7.53516 8.23439 7.53516C7.96168 7.5352 7.69969 7.6431 7.50685 7.83594C7.48885 7.85393 7.47257 7.87343 7.45607 7.89258V2.63184H9.01271ZM9.01271 2.36426V2.38184H8.23439L7.45607 2.38086V2.36328L9.01271 2.36426ZM9.01271 2.09668V2.11426L7.45607 2.11328V2.0957L9.01271 2.09668ZM8.23536 1.82812V1.8291H9.01368V1.84668H8.23439L7.45607 1.8457V1.82812H8.23536ZM9.01368 1.56055V1.57812H7.45704V1.56055L8.23536 1.56152V1.56055H9.01368ZM8.23536 1.29297V1.29395H9.01368V1.31055H7.45704V1.29297H8.23536ZM8.23536 0.367188C8.33751 0.367256 8.43886 0.387641 8.53322 0.426758C8.62764 0.465944 8.7139 0.523365 8.78615 0.595703C8.85832 0.668013 8.91508 0.754215 8.95411 0.848633C8.97696 0.903934 8.99138 0.961731 9.00099 1.02051H7.46876C7.47842 0.96135 7.49354 0.903282 7.51661 0.847656C7.55577 0.753309 7.61233 0.666931 7.68458 0.594727C7.75692 0.522489 7.84304 0.464841 7.93751 0.425781C8.03189 0.386762 8.13324 0.367161 8.23536 0.367188Z" fill="var(--fill-0, #EF95AA)" stroke="var(--stroke-0, #EF95AA)" stroke-width="0.25"/>
<path id="Vector_2" d="M0.75 7.59061L7.12775 1.21315C7.27457 1.06632 7.44888 0.949839 7.64072 0.87037C7.83256 0.790902 8.03818 0.75 8.24582 0.75C8.45347 0.75 8.65909 0.790902 8.85093 0.87037C9.04277 0.949839 9.21707 1.06632 9.3639 1.21315L15.7413 7.59091" stroke="var(--stroke-0, #EF95AA)" stroke-width="1.5" stroke-linecap="round" stroke-linejoin="round"/>
</g>
</svg>
