<svg width="35" height="35" viewBox="0 0 34.9045 34.9045" fill="none" xmlns="http://www.w3.org/2000/svg" aria-hidden="true">
  <path d="M13.4792 22.9583C10.8299 22.9583 8.58792 22.0406 6.75333 20.205C4.91875 18.3694 4.00097 16.1275 4 13.4792C3.99903 10.8308 4.91681 8.58889 6.75333 6.75333C8.58986 4.91778 10.8318 4 13.4792 4C16.1265 4 18.369 4.91778 20.2065 6.75333C22.044 8.58889 22.9613 10.8308 22.9583 13.4792C22.9583 14.5486 22.7882 15.5573 22.4479 16.5052C22.1076 17.4531 21.6458 18.2917 21.0625 19.0208L29.2292 27.1875C29.4965 27.4549 29.6302 27.7951 29.6302 28.2083C29.6302 28.6215 29.4965 28.9618 29.2292 29.2292C28.9618 29.4965 28.6215 29.6302 28.2083 29.6302C27.7951 29.6302 27.4549 29.4965 27.1875 29.2292L19.0208 21.0625C18.2917 21.6458 17.4531 22.1076 16.5052 22.4479C15.5573 22.7882 14.5486 22.9583 13.4792 22.9583ZM13.4792 20.0417C15.3021 20.0417 16.8518 19.4039 18.1283 18.1283C19.4049 16.8528 20.0426 15.3031 20.0417 13.4792C20.0407 11.6553 19.4029 10.106 18.1283 8.83146C16.8538 7.55688 15.304 6.91861 13.4792 6.91667C11.6543 6.91472 10.1051 7.55299 8.83146 8.83146C7.55785 10.1099 6.91958 11.6592 6.91667 13.4792C6.91375 15.2992 7.55201 16.8489 8.83146 18.1283C10.1109 19.4078 11.6601 20.0456 13.4792 20.0417Z" fill="#C3C9D0"/>
</svg>
